<mxfile host="app.diagrams.net" agent="Mozilla/5.0 (Windows NT 10.0; Win64; x64; rv:133.0) Gecko/20100101 Firefox/133.0" version="25.0.1">
  <diagram name="Page-1" id="mNUyzf6wAydVWjYh6oUH">
    <mxGraphModel dx="1434" dy="831" grid="1" gridSize="10" guides="1" tooltips="1" connect="1" arrows="1" fold="1" page="1" pageScale="1" pageWidth="850" pageHeight="1100" math="0" shadow="0">
      <root>
        <mxCell id="0" />
        <mxCell id="1" parent="0" />
        <mxCell id="PsRZw0_peK2K4ACqrsOJ-1" value="&lt;div&gt;User&lt;/div&gt;" style="shape=umlActor;verticalLabelPosition=bottom;verticalAlign=top;html=1;outlineConnect=0;" vertex="1" parent="1">
          <mxGeometry x="130" y="50" width="30" height="60" as="geometry" />
        </mxCell>
        <mxCell id="PsRZw0_peK2K4ACqrsOJ-20" style="edgeStyle=none;curved=1;rounded=0;orthogonalLoop=1;jettySize=auto;html=1;exitX=0.25;exitY=1;exitDx=0;exitDy=0;entryX=0.5;entryY=0;entryDx=0;entryDy=0;fontSize=12;startSize=8;endSize=8;" edge="1" parent="1" source="PsRZw0_peK2K4ACqrsOJ-3" target="PsRZw0_peK2K4ACqrsOJ-19">
          <mxGeometry relative="1" as="geometry" />
        </mxCell>
        <mxCell id="PsRZw0_peK2K4ACqrsOJ-3" value="" style="swimlane;startSize=0;" vertex="1" parent="1">
          <mxGeometry x="180" y="50" width="320" height="110" as="geometry" />
        </mxCell>
        <mxCell id="PsRZw0_peK2K4ACqrsOJ-4" value="Web Frontend" style="text;html=1;align=center;verticalAlign=middle;resizable=0;points=[];autosize=1;strokeColor=none;fillColor=none;fontSize=16;" vertex="1" parent="PsRZw0_peK2K4ACqrsOJ-3">
          <mxGeometry width="120" height="30" as="geometry" />
        </mxCell>
        <mxCell id="PsRZw0_peK2K4ACqrsOJ-5" value="&lt;div&gt;APPUI&lt;/div&gt;" style="whiteSpace=wrap;html=1;" vertex="1" parent="PsRZw0_peK2K4ACqrsOJ-3">
          <mxGeometry x="10" y="30" width="120" height="60" as="geometry" />
        </mxCell>
        <mxCell id="PsRZw0_peK2K4ACqrsOJ-6" value="&lt;div&gt;UI Logic&lt;/div&gt;&lt;div&gt;Templates&lt;br&gt;&lt;/div&gt;" style="whiteSpace=wrap;html=1;" vertex="1" parent="PsRZw0_peK2K4ACqrsOJ-3">
          <mxGeometry x="160" y="30" width="120" height="60" as="geometry" />
        </mxCell>
        <mxCell id="PsRZw0_peK2K4ACqrsOJ-33" style="edgeStyle=none;curved=1;rounded=0;orthogonalLoop=1;jettySize=auto;html=1;exitX=0.5;exitY=1;exitDx=0;exitDy=0;entryX=0.75;entryY=0;entryDx=0;entryDy=0;fontSize=12;startSize=8;endSize=8;" edge="1" parent="1" source="PsRZw0_peK2K4ACqrsOJ-8" target="PsRZw0_peK2K4ACqrsOJ-12">
          <mxGeometry relative="1" as="geometry" />
        </mxCell>
        <mxCell id="PsRZw0_peK2K4ACqrsOJ-34" value="&lt;div&gt;Query csv data&lt;/div&gt;" style="edgeLabel;html=1;align=center;verticalAlign=middle;resizable=0;points=[];fontSize=12;" vertex="1" connectable="0" parent="PsRZw0_peK2K4ACqrsOJ-33">
          <mxGeometry x="0.0268" y="-1" relative="1" as="geometry">
            <mxPoint y="-1" as="offset" />
          </mxGeometry>
        </mxCell>
        <mxCell id="PsRZw0_peK2K4ACqrsOJ-8" value="" style="swimlane;startSize=0;" vertex="1" parent="1">
          <mxGeometry x="100" y="250" width="200" height="100" as="geometry" />
        </mxCell>
        <mxCell id="PsRZw0_peK2K4ACqrsOJ-9" value="Django Backend" style="text;html=1;align=center;verticalAlign=middle;resizable=0;points=[];autosize=1;strokeColor=none;fillColor=none;fontSize=16;" vertex="1" parent="PsRZw0_peK2K4ACqrsOJ-8">
          <mxGeometry width="140" height="30" as="geometry" />
        </mxCell>
        <mxCell id="PsRZw0_peK2K4ACqrsOJ-23" value="&lt;div&gt;Business Logic&lt;/div&gt;" style="whiteSpace=wrap;html=1;" vertex="1" parent="PsRZw0_peK2K4ACqrsOJ-8">
          <mxGeometry x="10" y="40" width="90" height="40" as="geometry" />
        </mxCell>
        <mxCell id="PsRZw0_peK2K4ACqrsOJ-25" value="&lt;div&gt;Data Processing&lt;/div&gt;" style="whiteSpace=wrap;html=1;" vertex="1" parent="PsRZw0_peK2K4ACqrsOJ-8">
          <mxGeometry x="100" y="40" width="90" height="40" as="geometry" />
        </mxCell>
        <mxCell id="PsRZw0_peK2K4ACqrsOJ-36" style="edgeStyle=none;curved=1;rounded=0;orthogonalLoop=1;jettySize=auto;html=1;exitX=1;exitY=0.25;exitDx=0;exitDy=0;entryX=0;entryY=0.5;entryDx=0;entryDy=0;fontSize=12;startSize=8;endSize=8;" edge="1" parent="1" source="PsRZw0_peK2K4ACqrsOJ-10" target="PsRZw0_peK2K4ACqrsOJ-14">
          <mxGeometry relative="1" as="geometry" />
        </mxCell>
        <mxCell id="PsRZw0_peK2K4ACqrsOJ-40" style="edgeStyle=none;curved=1;rounded=0;orthogonalLoop=1;jettySize=auto;html=1;exitX=0;exitY=0.25;exitDx=0;exitDy=0;entryX=1;entryY=0.25;entryDx=0;entryDy=0;fontSize=12;startSize=8;endSize=8;" edge="1" parent="1" source="PsRZw0_peK2K4ACqrsOJ-10" target="PsRZw0_peK2K4ACqrsOJ-12">
          <mxGeometry relative="1" as="geometry" />
        </mxCell>
        <mxCell id="PsRZw0_peK2K4ACqrsOJ-10" value="" style="swimlane;startSize=0;" vertex="1" parent="1">
          <mxGeometry x="330" y="500" width="180" height="190" as="geometry" />
        </mxCell>
        <mxCell id="PsRZw0_peK2K4ACqrsOJ-11" value="Data Pipeline" style="text;html=1;align=center;verticalAlign=middle;resizable=0;points=[];autosize=1;strokeColor=none;fillColor=none;fontSize=16;" vertex="1" parent="PsRZw0_peK2K4ACqrsOJ-10">
          <mxGeometry width="120" height="30" as="geometry" />
        </mxCell>
        <mxCell id="PsRZw0_peK2K4ACqrsOJ-30" value="Fetches Stock Exchange" style="whiteSpace=wrap;html=1;" vertex="1" parent="PsRZw0_peK2K4ACqrsOJ-10">
          <mxGeometry x="30" y="40" width="120" height="60" as="geometry" />
        </mxCell>
        <mxCell id="PsRZw0_peK2K4ACqrsOJ-31" value="&lt;div&gt;Filter Format to CSV&lt;/div&gt;" style="whiteSpace=wrap;html=1;" vertex="1" parent="PsRZw0_peK2K4ACqrsOJ-10">
          <mxGeometry x="30" y="110" width="120" height="60" as="geometry" />
        </mxCell>
        <mxCell id="PsRZw0_peK2K4ACqrsOJ-35" style="edgeStyle=none;curved=1;rounded=0;orthogonalLoop=1;jettySize=auto;html=1;exitX=1;exitY=0.5;exitDx=0;exitDy=0;entryX=0;entryY=0.75;entryDx=0;entryDy=0;fontSize=12;startSize=8;endSize=8;" edge="1" parent="1" source="PsRZw0_peK2K4ACqrsOJ-12" target="PsRZw0_peK2K4ACqrsOJ-10">
          <mxGeometry relative="1" as="geometry" />
        </mxCell>
        <mxCell id="PsRZw0_peK2K4ACqrsOJ-41" style="edgeStyle=none;curved=1;rounded=0;orthogonalLoop=1;jettySize=auto;html=1;exitX=1;exitY=0;exitDx=0;exitDy=0;entryX=0;entryY=0.5;entryDx=0;entryDy=0;fontSize=12;startSize=8;endSize=8;" edge="1" parent="1" source="PsRZw0_peK2K4ACqrsOJ-12" target="PsRZw0_peK2K4ACqrsOJ-17">
          <mxGeometry relative="1" as="geometry" />
        </mxCell>
        <mxCell id="PsRZw0_peK2K4ACqrsOJ-12" value="" style="swimlane;startSize=0;" vertex="1" parent="1">
          <mxGeometry x="55" y="480" width="200" height="100" as="geometry" />
        </mxCell>
        <mxCell id="PsRZw0_peK2K4ACqrsOJ-28" value="&lt;div&gt;Maybe SQL&lt;/div&gt;" style="whiteSpace=wrap;html=1;" vertex="1" parent="PsRZw0_peK2K4ACqrsOJ-12">
          <mxGeometry x="100" y="40" width="90" height="40" as="geometry" />
        </mxCell>
        <mxCell id="PsRZw0_peK2K4ACqrsOJ-13" value="File Storage" style="text;html=1;align=center;verticalAlign=middle;resizable=0;points=[];autosize=1;strokeColor=none;fillColor=none;fontSize=16;" vertex="1" parent="PsRZw0_peK2K4ACqrsOJ-12">
          <mxGeometry width="110" height="30" as="geometry" />
        </mxCell>
        <mxCell id="PsRZw0_peK2K4ACqrsOJ-27" value="&lt;div&gt;CSV&lt;/div&gt;" style="whiteSpace=wrap;html=1;" vertex="1" parent="PsRZw0_peK2K4ACqrsOJ-12">
          <mxGeometry x="20" y="40" width="80" height="40" as="geometry" />
        </mxCell>
        <mxCell id="PsRZw0_peK2K4ACqrsOJ-37" style="edgeStyle=none;curved=1;rounded=0;orthogonalLoop=1;jettySize=auto;html=1;exitX=0;exitY=0.75;exitDx=0;exitDy=0;entryX=1;entryY=0.5;entryDx=0;entryDy=0;fontSize=12;startSize=8;endSize=8;" edge="1" parent="1" source="PsRZw0_peK2K4ACqrsOJ-14" target="PsRZw0_peK2K4ACqrsOJ-10">
          <mxGeometry relative="1" as="geometry" />
        </mxCell>
        <mxCell id="PsRZw0_peK2K4ACqrsOJ-14" value="" style="swimlane;startSize=0;" vertex="1" parent="1">
          <mxGeometry x="560" y="560" width="200" height="110" as="geometry" />
        </mxCell>
        <mxCell id="PsRZw0_peK2K4ACqrsOJ-16" value="&lt;div&gt;External Systems&lt;/div&gt;" style="text;html=1;align=center;verticalAlign=middle;resizable=0;points=[];autosize=1;strokeColor=none;fillColor=none;fontSize=16;" vertex="1" parent="PsRZw0_peK2K4ACqrsOJ-14">
          <mxGeometry width="150" height="30" as="geometry" />
        </mxCell>
        <mxCell id="PsRZw0_peK2K4ACqrsOJ-26" value="Macedonian Stock Exchange " style="whiteSpace=wrap;html=1;" vertex="1" parent="PsRZw0_peK2K4ACqrsOJ-14">
          <mxGeometry x="40" y="40" width="120" height="60" as="geometry" />
        </mxCell>
        <mxCell id="PsRZw0_peK2K4ACqrsOJ-39" style="edgeStyle=none;curved=1;rounded=0;orthogonalLoop=1;jettySize=auto;html=1;exitX=0;exitY=0;exitDx=0;exitDy=0;entryX=1;entryY=1;entryDx=0;entryDy=0;fontSize=12;startSize=8;endSize=8;" edge="1" parent="1" source="PsRZw0_peK2K4ACqrsOJ-17" target="PsRZw0_peK2K4ACqrsOJ-3">
          <mxGeometry relative="1" as="geometry" />
        </mxCell>
        <mxCell id="PsRZw0_peK2K4ACqrsOJ-42" value="Response" style="edgeLabel;html=1;align=center;verticalAlign=middle;resizable=0;points=[];fontSize=12;" vertex="1" connectable="0" parent="PsRZw0_peK2K4ACqrsOJ-39">
          <mxGeometry x="-0.1289" y="2" relative="1" as="geometry">
            <mxPoint x="1" as="offset" />
          </mxGeometry>
        </mxCell>
        <mxCell id="PsRZw0_peK2K4ACqrsOJ-17" value="" style="swimlane;startSize=0;" vertex="1" parent="1">
          <mxGeometry x="600" y="350" width="200" height="90" as="geometry" />
        </mxCell>
        <mxCell id="PsRZw0_peK2K4ACqrsOJ-18" value="AI Modules" style="text;html=1;align=center;verticalAlign=middle;resizable=0;points=[];autosize=1;strokeColor=none;fillColor=none;fontSize=16;" vertex="1" parent="PsRZw0_peK2K4ACqrsOJ-17">
          <mxGeometry y="1" width="100" height="30" as="geometry" />
        </mxCell>
        <mxCell id="PsRZw0_peK2K4ACqrsOJ-29" value="Analyze historical data" style="whiteSpace=wrap;html=1;" vertex="1" parent="PsRZw0_peK2K4ACqrsOJ-17">
          <mxGeometry x="20" y="30" width="110" height="40" as="geometry" />
        </mxCell>
        <mxCell id="PsRZw0_peK2K4ACqrsOJ-21" style="edgeStyle=none;curved=1;rounded=0;orthogonalLoop=1;jettySize=auto;html=1;exitX=0.5;exitY=1;exitDx=0;exitDy=0;entryX=0.75;entryY=0;entryDx=0;entryDy=0;fontSize=12;startSize=8;endSize=8;" edge="1" parent="1" source="PsRZw0_peK2K4ACqrsOJ-19" target="PsRZw0_peK2K4ACqrsOJ-8">
          <mxGeometry relative="1" as="geometry" />
        </mxCell>
        <mxCell id="PsRZw0_peK2K4ACqrsOJ-19" value="Web Request" style="ellipse;whiteSpace=wrap;html=1;" vertex="1" parent="1">
          <mxGeometry x="240" y="190" width="20" height="20" as="geometry" />
        </mxCell>
      </root>
    </mxGraphModel>
  </diagram>
</mxfile>
